<svg xmlns="http://www.w3.org/2000/svg" xmlns:xlink="http://www.w3.org/1999/xlink" viewBox="0 0 139.84 170.69" fill="#ffffff"><g id="Слой_2" data-name="Слой 2"><g id="Слой_1-2" data-name="Слой 1"><path class="cls-1" d="M139.84,146.07h-6.41q-4.76-6-11.1-13L30.07,31H27.94V146.07c-.79-.07-1.85-.22-3.13-.39a22.1,22.1,0,0,0-2.89-.25,25,25,0,0,0-3.13.25c-1.35.17-2.28.32-2.81.39V0h8.29L125.74,110h2.14V0c1,.11,2,.25,3,.39a17.4,17.4,0,0,0,3,.25c.43,0,1,0,1.75-.11s1.49-.17,2.28-.28S139.34,0,139.84,0V146.07Z"/><g id="Слой_1-3" data-name="Слой_1"><polygon class="cls-2" points="41.87 121.44 35.31 140.27 50.69 151.51 31.3 151.84 24.81 170.69 19.39 152.07 0 152.48 16.04 140.64 10.54 122.05 25.88 133.35 41.87 121.44"/></g></g></g></svg>