<svg xmlns="http://www.w3.org/2000/svg" viewBox="0 0 66.79 32.49"><defs><style>.cls-1{fill:#fff;fill-rule:evenodd;}</style></defs><g id="Слой_2" data-name="Слой 2"><g id="Слой_1-2" data-name="Слой 1"><path class="cls-1" d="M0,31.7V.7H3.56l12.51,19L28.65.7h3.5v31H28.41V7.44L16.12,25.78,3.84,7.44V31.7ZM36.94,27l2.24-3.32A26.58,26.58,0,0,0,46,27.6a19.74,19.74,0,0,0,7,1.34,12,12,0,0,0,7-1.82,5.47,5.47,0,0,0,2.68-4.69,4.51,4.51,0,0,0-1.92-3.74,10.09,10.09,0,0,0-5.31-1.75c-.55-.06-1.33-.12-2.36-.17-5.09-.36-8.55-1-10.41-1.8a8.15,8.15,0,0,1-3.28-2.68,6.5,6.5,0,0,1-1.12-3.7,7.39,7.39,0,0,1,3.34-6.17A14.53,14.53,0,0,1,50.29,0a24,24,0,0,1,7.65,1.27,26.65,26.65,0,0,1,7.17,3.79L62.87,8.29a22.12,22.12,0,0,0-6-3.49,18.63,18.63,0,0,0-6.49-1.17A11.22,11.22,0,0,0,44.6,5a4,4,0,0,0-2.27,3.42,3.19,3.19,0,0,0,.37,1.49,4.18,4.18,0,0,0,1.12,1.28c1.27.94,4,1.56,8.24,1.82,1.95.11,3.46.23,4.52.36a13,13,0,0,1,7.46,3,8,8,0,0,1,2.75,6.15A8.55,8.55,0,0,1,63,29.67q-3.78,2.8-9.9,2.81a26.39,26.39,0,0,1-8.59-1.35A25.55,25.55,0,0,1,37,27Z"/></g></g></svg>