<svg id="Слой_1" data-name="Слой 1" xmlns="http://www.w3.org/2000/svg" viewBox="0 0 292.74 85.93"><defs><style>.cls-1{fill:#ee2c3d;fill-rule:evenodd;}.cls-2{fill:#231f20;}</style></defs><title>123</title><path class="cls-1" d="M-40.41,128V97h3.56l12.51,19,12.58-19h3.5v31H-12V103.74l-12.29,18.34-12.28-18.34V128ZM.7,118.69h9.36L5.41,109.5.7,118.69ZM-8,128,4.21,104H6.56l12.27,24h-4l-3.11-6.1H-.92L-4,128Zm34.89,0,12-24H34.8l-8.86,18-9-18H13l12,24ZM40,128V104H62.41v3.51H43.69v6H56v3.45H43.69v7.59H63.44V128Zm29-14H81.68a4.5,4.5,0,0,0,3-.84,3,3,0,0,0,1-2.43,2.89,2.89,0,0,0-1-2.39,4.56,4.56,0,0,0-3-.84H69V114Zm0,3.51V128H65.22V104H81.68a8.6,8.6,0,0,1,5.75,1.78,6.08,6.08,0,0,1,2.08,4.91,6.45,6.45,0,0,1-1.65,4.42,6.87,6.87,0,0,1-4.28,2.29L90.25,128H86.18l-6.79-10.47ZM98.55,128h3.67v-12.3l11-11.69h-5l-7.79,8.52L92.47,104H87.65l10.9,11.75V128Zm30-4.67,2.24-3.32a26.85,26.85,0,0,0,6.83,3.89,19.84,19.84,0,0,0,7,1.34,12.09,12.09,0,0,0,7-1.82,5.48,5.48,0,0,0,2.68-4.69,4.52,4.52,0,0,0-1.92-3.74,10,10,0,0,0-5.31-1.75c-.55-.06-1.33-.12-2.36-.17-5.09-.36-8.55-1-10.41-1.8a8.28,8.28,0,0,1-3.28-2.68,6.48,6.48,0,0,1-1.12-3.7,7.36,7.36,0,0,1,3.34-6.17,14.45,14.45,0,0,1,8.66-2.41,23.74,23.74,0,0,1,7.65,1.27,26.33,26.33,0,0,1,7.17,3.79l-2.24,3.22a22,22,0,0,0-6-3.49,18.56,18.56,0,0,0-6.49-1.17,11.11,11.11,0,0,0-5.78,1.37,4,4,0,0,0-2.27,3.42,3.13,3.13,0,0,0,.37,1.49,4.25,4.25,0,0,0,1.12,1.28c1.27.94,4,1.56,8.24,1.82,1.95.11,3.46.23,4.52.36a12.93,12.93,0,0,1,7.46,3,8,8,0,0,1,2.75,6.15,8.58,8.58,0,0,1-3.77,7.15q-3.78,2.8-9.9,2.81a26.49,26.49,0,0,1-8.59-1.35,25.75,25.75,0,0,1-7.56-4.13Zm45.62,1.91a11.56,11.56,0,0,0,7.82-2.6,8.69,8.69,0,0,0,0-13.2,11.62,11.62,0,0,0-7.81-2.61,11.5,11.5,0,0,0-7.78,2.6,8.73,8.73,0,0,0,0,13.21,11.45,11.45,0,0,0,7.78,2.6Zm0,3.51a15.38,15.38,0,0,1-10.51-3.62,12.1,12.1,0,0,1,0-18.17,17.4,17.4,0,0,1,21.13,0,12.12,12.12,0,0,1,0,18.19,15.45,15.45,0,0,1-10.58,3.61Zm17.23-.75V104h2l15.2,16.86V104h3.67v24h-2l-15.2-16.8V128Zm22.57-21.52a23.5,23.5,0,0,0,1.42-2.45,18.67,18.67,0,0,0,1-2.5h-.29a1.74,1.74,0,0,1-1.41-.68,2.75,2.75,0,0,1-.55-1.79,2.84,2.84,0,0,1,.69-2,2.22,2.22,0,0,1,1.72-.77,2.26,2.26,0,0,1,1.92,1,4.74,4.74,0,0,1,.72,2.77,6.87,6.87,0,0,1-1.06,3.39,21.12,21.12,0,0,1-3.18,4l-1-1Zm1.94,18.45a23.74,23.74,0,0,0,6.29,2.82,24.84,24.84,0,0,0,6.91,1,12.38,12.38,0,0,0,7.67-2.24,6.87,6.87,0,0,0,3-5.65,6.47,6.47,0,0,0-2.92-5.76c-1.94-1.3-4.81-1.94-8.63-1.94a17.21,17.21,0,0,1-5.79-.67,2.33,2.33,0,0,1-1.66-2.27,2.85,2.85,0,0,1,1.65-2.5,8.81,8.81,0,0,1,4.38-.94,16.21,16.21,0,0,1,4.94.82,19,19,0,0,1,4.82,2.34l1.89-3.11a22.61,22.61,0,0,0-5.6-2.58,20.77,20.77,0,0,0-6-.87,12.28,12.28,0,0,0-7.2,1.88,5.82,5.82,0,0,0-2.68,5,5.07,5.07,0,0,0,2.44,4.74c1.62.95,4.62,1.46,9,1.52a12.94,12.94,0,0,1,5.66,1.1,3.27,3.27,0,0,1,1.8,3,3.88,3.88,0,0,1-2,3.34,9.11,9.11,0,0,1-5.17,1.31,18.47,18.47,0,0,1-5.59-.93,21.2,21.2,0,0,1-5.38-2.58Z" transform="translate(46.67 -56.86)"/><rect class="cls-2" x="-46.32" y="140.56" width="292.03" height="2" transform="translate(46.46 -56.71) rotate(-0.08)"/><path class="cls-2" d="M-46,83.85l-.7-1.87c29.36-11,60.9-21.66,95.25-21.38,29.35.26,48.13,5.71,64.69,10.51,12.32,3.58,24,7,38.1,7.62,33.08,1.56,64-10.36,94-21.87l.73,1.86c-30.14,11.59-61.3,23.57-94.79,22-14.39-.68-26.13-4.09-38.56-7.69C96.27,68.26,77.64,62.85,48.57,62.6,14.54,62.27-16.79,72.94-46,83.85Z" transform="translate(46.67 -56.86)"/></svg>